<svg width="12" height="15" viewBox="0 0 12 15" fill="none" xmlns="http://www.w3.org/2000/svg">
<path d="M6 7.62939e-05C2.69178 7.62939e-05 6.10828e-05 2.6918 6.10828e-05 5.99627C-0.0216887 10.83 5.772 14.8379 6 14.9999C6 14.9999 12.0217 10.83 11.9999 6.00002C11.9999 2.6918 9.30822 7.62939e-05 6 7.62939e-05ZM6 8.99999C4.34252 8.99999 3.00003 7.6575 3.00003 6.00002C3.00003 4.34253 4.34252 3.00005 6 3.00005C7.65748 3.00005 8.99997 4.34253 8.99997 6.00002C8.99997 7.6575 7.65748 8.99999 6 8.99999Z" fill="black"/>
</svg>
